HIERARCHY
ROOT Hips
{
	OFFSET 0.00000 0.00000 0.00000
	CHANNELS 6 Xposition Yposition Zposition Yrotation Zrotation Xrotation 
	JOINT Lumbar
	{
		OFFSET 0 0 0
		CHANNELS 3 Zrotation Xrotation Yrotation
		JOINT Neck
		{
			OFFSET 0.00 0.2701 0.00
			CHANNELS 3 Zrotation Xrotation Yrotation
			End Site
			{
				OFFSET 0.00 0.1379 0.00
			}
		}
		JOINT RightShoulder
		{
			OFFSET 0.0119 0.2289 0.1181
			CHANNELS 3 Zrotation Xrotation Yrotation
			JOINT RightElbow
			{
				OFFSET 0.00 -0.1475 0.00
				CHANNELS 2 Zrotation Yrotation
				JOINT RightWrist
				{
					OFFSET 0.00 -0.1605 0.00
					CHANNELS 2 Zrotation Xrotation
					End Site
					{
						OFFSET 0.0040 -0.1068 0.0006
					}
				}
			}
		}
		JOINT LeftShoulder
		{
			OFFSET 0.0119 0.2289 -0.1181
			CHANNELS 3 Zrotation Xrotation Yrotation
			JOINT LeftElbow
			{
				OFFSET 0.00 -0.1475 0.00
				CHANNELS 2 Zrotation Yrotation
				JOINT LeftWrist
				{
					OFFSET 0.00 -0.1605 0.00
					CHANNELS 2 Zrotation Xrotation
					End Site
					{
						OFFSET 0.0040 -0.1068 -0.0006
					}
				}
			}
		}
	}
	JOINT RightHip
	{
		OFFSET 0.0316 -0.0424 0.0458
		CHANNELS 3 Zrotation Xrotation Yrotation
		JOINT RightKnee
		{
			OFFSET 0.00 -0.2438 0.00
			CHANNELS 1 Zrotation
			JOINT RightAnkle
			{
				OFFSET 0.00 -0.2449 0.00
				CHANNELS 3 Zrotation Xrotation Yrotation
				End Site
				{
					OFFSET 0.1237 -0.0542 0.0051
				}
			}
		}
	}
	JOINT LeftHip
	{
		OFFSET 0.0316 -0.0424 -0.0458
		CHANNELS 3 Zrotation Xrotation Yrotation
		JOINT LeftKnee
		{
			OFFSET 0.00 -0.2438 0.00
			CHANNELS 1 Zrotation
			JOINT LeftAnkle
			{
				OFFSET 0.00 -0.2449 0.00
				CHANNELS 3 Zrotation Xrotation Yrotation
				End Site
				{
					OFFSET 0.1237 -0.0542 -0.0051
				}
			}
		}
	}
}
MOTION
Frames: 11
Frame Time: 0.02
0.25219 -0.1456 -0.05386 -182.21598 -50.78212 -6.07177 6.80459 0.75428 1.54117 45.73805 1.48314 -2.11991 49.17855 16.2147 48.79062 59.02732 130.58484 19.79492 8.11524 45.75176 -16.2146 -55.63396 76.62313 -120.21376 35.10205 -2.21944 120.99796 -3.56526 -20.25785 -83.34168 -8.86218 -0.88808 -2.78525 123.05581 19.63256 39.70021 -118.95204 -9.79729 2.22313 3.4718
0.25233 -0.14559 -0.05382 -182.25663 -50.74473 -6.09178 6.79933 0.77366 1.53374 45.72144 1.52162 -2.11991 49.14803 16.2147 48.78613 58.96539 130.57829 19.75933 8.08438 45.77361 -16.2147 -55.63422 76.51739 -120.25508 35.00437 -2.25931 120.93571 -3.64054 -20.36874 -83.33355 -8.87115 -0.88367 -2.7809 123.03414 19.68736 39.61203 -119.2 -9.75774 2.23403 3.47507
0.25242 -0.14566 -0.05373 -182.32508 -50.71702 -6.12083 6.80674 0.78189 1.51792 45.70953 1.56224 -2.11991 49.11937 16.2147 48.77047 58.88189 130.5686 19.71929 8.05114 45.79514 -16.21458 -55.6339 76.39188 -120.3007 34.91543 -2.29846 120.83882 -3.7995 -20.60801 -83.31008 -8.88022 -0.86851 -2.77056 123.01854 19.7623 39.52661 -119.43312 -9.72574 2.2414 3.4768
0.25253 -0.14569 -0.05367 -182.37977 -50.68591 -6.14585 6.80852 0.79499 1.506 45.69542 1.60145 -2.11991 49.08998 16.2147 48.75831 58.80864 130.56149 19.68473 8.02213 45.81561 -16.21463 -55.63402 76.2748 -120.34344 34.82498 -2.33827 120.75999 -3.91647 -20.78346 -83.29385 -8.88895 -0.85833 -2.76305 123.00071 19.82742 39.44148 -119.66652 -9.69146 2.25015 3.47918
0.25264 -0.14573 -0.05358 -182.43943 -50.64976 -6.17037 6.80905 0.80903 1.49285 45.68088 1.6412 -2.11991 49.06089 16.2147 48.75394 58.73251 130.5492 19.63642 7.97952 45.84123 -16.21503 -55.63509 76.16097 -120.38404 34.7243 -2.38365 120.67137 -4.04867 -20.98035 -83.27709 -8.89896 -0.8479 -2.75515 122.98015 19.89447 39.34918 -119.92889 -9.65182 2.26028 3.48194
0.25274 -0.14577 -0.05353 -182.4959 -50.62673 -6.19896 6.8155 0.81844 1.48165 45.66917 1.6822 -2.11991 49.02995 16.2147 48.72914 58.65867 130.54722 19.61458 7.96466 45.85517 -16.21385 -55.6319 76.0346 -120.43777 34.64652 -2.40859 120.59476 -4.16924 -21.164 -83.25721 -8.90636 -0.83538 -2.74661 122.96694 19.96371 39.27221 -120.12708 -9.62532 2.26635 3.48339
0.25284 -0.14584 -0.0536 -182.52907 -50.63709 -6.22653 6.83476 0.81777 1.46482 45.65686 1.70931 -2.11991 49.01052 16.2147 48.66515 58.58295 130.57298 19.67684 8.02847 45.84788 -16.21571 -55.63692 75.88678 -120.45595 34.63597 -2.45642 120.56175 -4.24113 -21.2755 -83.23679 -8.90595 -0.81964 -2.73771 122.97215 20.01999 39.24333 -120.14733 -9.63348 2.26445 3.4828
0.25293 -0.14591 -0.05369 -182.55943 -50.66031 -6.25965 6.85979 0.8129 1.45255 45.64829 1.74067 -2.11991 48.98632 16.2147 48.57873 58.51218 130.60982 19.76424 8.11989 45.82724 -16.21498 -55.63495 75.72513 -120.49693 34.64769 -2.47268 120.54164 -4.29766 -21.36982 -83.21302 -8.90299 -0.80217 -2.72839 122.98462 20.07987 39.22877 -120.10391 -9.65463 2.25822 3.48076
0.253 -0.14598 -0.05375 -182.59596 -50.6783 -6.29671 6.8825 0.80989 1.44685 45.64313 1.78116 -2.11991 48.95292 16.2147 48.49256 58.44876 130.64222 19.8334 8.19806 45.80525 -16.21017 -55.62192 75.56475 -120.57823 34.64442 -2.44666 120.51439 -4.35929 -21.47542 -83.18777 -8.90159 -0.78548 -2.71929 122.99414 20.14787 39.20358 -120.09231 -9.66976 2.25226 3.47851
0.25314 -0.14606 -0.05387 -182.61264 -50.69485 -6.30682 6.90412 0.80644 1.4048 45.61778 1.77525 -2.11991 48.96659 16.2147 48.44624 58.34659 130.67079 19.93042 8.27998 45.81323 -16.22606 -55.66496 75.4262 -120.45988 34.65942 -2.64417 120.49145 -4.43294 -21.57239 -83.17424 -8.8986 -0.76835 -2.70979 123.0026 20.17737 39.19581 -120.06848 -9.68565 2.25292 3.47964
0.25315 -0.14612 -0.05389 -182.66986 -50.71632 -6.37429 6.92953 0.80338 1.43912 45.63381 1.8667 -2.11991 48.88226 16.2147 48.31391 58.32343 130.71154 19.97639 8.35959 45.75726 -16.20008 -55.59459 75.23746 -120.74496 34.64477 -2.38807 120.4629 -4.47535 -21.6796 -83.13624 -8.89821 -0.752 -2.70118 123.01462 20.28516 39.15518 -120.05464 -9.70293 2.23935 3.4737
